<svg width="1200" height="800" viewBox="0 0 1200 800" fill="none" xmlns="http://www.w3.org/2000/svg">
  <rect width="1200" height="800" rx="64" fill="#FFFCF7"/>
  <circle cx="228" cy="602" r="196" fill="#F8E2C0"/>
  <circle cx="1010" cy="160" r="178" fill="#E9F4EE"/>
  <rect x="680" y="265" width="236" height="236" rx="118" fill="#FFF3E6" stroke="#D9775F" stroke-width="22"/>
  <circle cx="798" cy="383" r="76" fill="#FBD36B"/>
  <path d="M1008 266v238M970 266v86M1046 266v86" stroke="#789B8D" stroke-width="18" stroke-linecap="round"/>
  <path d="M412 514c-84 0-152-68-152-152s68-152 152-152 152 68 152 152-68 152-152 152Z" fill="#D89A63"/>
  <path d="M320 348c-38-15-56-58-40-96 39 5 68 35 71 73" fill="#C88654"/>
  <path d="M504 348c38-15 56-58 40-96-39 5-68 35-71 73" fill="#C88654"/>
  <ellipse cx="412" cy="397" rx="92" ry="86" fill="#FFE9C7"/>
  <circle cx="378" cy="364" r="18" fill="#243B37"/>
  <circle cx="447" cy="364" r="18" fill="#243B37"/>
  <ellipse cx="412" cy="397" rx="25" ry="18" fill="#5B3A2C"/>
  <path d="M382 430c21 23 39 23 60 0" stroke="#5B3A2C" stroke-width="10" stroke-linecap="round"/>
  <circle cx="341" cy="405" r="18" fill="#F5A5A1" opacity=".8"/>
  <circle cx="483" cy="405" r="18" fill="#F5A5A1" opacity=".8"/>
  <path d="M319 306c27-78 160-78 187 0" fill="#FBD36B"/>
  <path d="M307 310c54-26 158-26 211 0" stroke="#F0A51F" stroke-width="16" stroke-linecap="round"/>
  <text x="98" y="116" fill="#243B37" font-family="Inter, Noto Sans TC, sans-serif" font-size="54" font-weight="800">附近餐廳</text>
  <text x="100" y="178" fill="#60736E" font-family="Inter, Noto Sans TC, sans-serif" font-size="28" font-weight="500">找不到店家照時，先用乾淨一致的親子插圖</text>
</svg>
